<svg width="51" height="51" viewBox="0 0 51 51" fill="none" xmlns="http://www.w3.org/2000/svg">
<path fill-rule="evenodd" clip-rule="evenodd" d="M43.4633 7.48489C38.4548 2.53165 31.9805 0 25.4452 0C18.9098 0 12.3867 2.53165 7.42711 7.48489C2.47978 12.4381 0 18.9813 0 25.5245C0 32.0676 2.47978 38.5496 7.42711 43.564C12.3744 48.5173 18.8609 51 25.3841 51C28.2797 51 30.0367 50.8434 31.3947 50.5354C33.764 49.9982 34.215 46.8342 32.4898 45.1236V45.1236C31.5825 44.224 30.2571 43.9244 29.0022 44.1648C23.0538 45.3047 16.634 43.5494 11.9958 38.9165C4.61751 31.5295 4.61751 19.4583 11.9958 12.0712C19.4229 4.68417 31.4308 4.68417 38.8091 12.0712C45.601 18.8712 46.1873 29.5237 40.5437 36.9597L45.1734 41.595C53.3335 31.5784 52.7105 16.8043 43.4388 7.47266" fill="white"/>
<path fill-rule="evenodd" clip-rule="evenodd" d="M35.1929 30.4287L48.6059 43.5464C49.928 44.8393 49.9514 46.9593 48.6581 48.2811V48.2811C47.362 49.6057 45.2364 49.6254 43.916 48.325L30.5631 35.174C28.0834 32.8013 29.2439 34.061 26.1411 34.3301C23.6613 34.538 21.1327 33.6941 19.1904 31.7984C15.7089 28.374 15.6112 22.7236 19.0804 19.2502C22.5008 15.7157 28.1444 15.6668 31.6137 19.1402C33.5071 20.9869 34.4111 23.4697 34.3011 25.9402C34.0935 29.1078 32.7253 27.9948 35.1929 30.4287Z" fill="white"/>
</svg>
