<svg width="168" height="58" viewBox="0 0 168 58" fill="none" xmlns="http://www.w3.org/2000/svg">
<path d="M93.3753 6.68719C93.3753 8.57273 91.8282 10.1198 89.9105 10.1198H87.9282V13.617C87.9282 14.1004 87.5254 14.5033 87.0258 14.5033C86.5423 14.5033 86.1394 14.1004 86.1394 13.617V4.10868C86.1394 3.60909 86.5423 3.22232 87.0258 3.22232H89.9105C91.8282 3.22232 93.3753 4.76942 93.3753 6.68719ZM87.9282 5.01116V8.331H89.9105C90.8452 8.331 91.5704 7.58967 91.5865 6.68719C91.5704 5.75248 90.8452 5.01116 89.9105 5.01116H87.9282Z" fill="#333333"/>
<path d="M96.099 14.5033C95.5994 14.5033 95.2126 14.1004 95.2126 13.617V4.10868C95.2126 3.60909 95.5994 3.22232 96.099 3.22232H96.1151C96.1151 3.22232 96.1151 3.22232 96.1474 3.22232H101.369C101.836 3.22232 102.255 3.60909 102.255 4.10868C102.255 4.60827 101.836 5.01116 101.369 5.01116H97.0015V7.96034H100.756C101.24 7.96034 101.643 8.37934 101.643 8.8467C101.643 9.34629 101.24 9.74918 100.756 9.74918H97.0015V12.7145H101.369C101.836 12.7145 102.255 13.1174 102.255 13.617C102.255 14.1004 101.836 14.5033 101.369 14.5033H96.1474C96.1151 14.5033 96.1151 14.4872 96.1151 14.4872L96.099 14.5033Z" fill="#333333"/>
<path d="M111.656 12.6178C111.913 12.6984 112.123 12.8917 112.22 13.1657C112.381 13.6331 112.123 14.1327 111.656 14.2938C111.591 14.3099 111.462 14.3422 111.301 14.3422C111.301 14.3422 111.301 14.3422 111.285 14.3422C111.124 14.3422 110.882 14.3099 110.656 14.1649C110.447 14.036 110.27 13.8265 110.141 13.6008C109.915 13.1335 109.802 12.5533 109.802 11.667C109.786 11.3608 109.722 11.1512 109.609 10.974C109.512 10.7967 109.319 10.6355 109.125 10.5066C108.787 10.281 108.368 10.1521 108.223 10.1198H106.321V13.617C106.321 14.1004 105.918 14.5033 105.419 14.5033C104.919 14.5033 104.532 14.1004 104.532 13.617V4.10868C104.532 3.60909 104.919 3.22232 105.419 3.22232C105.419 3.22232 105.419 3.22232 105.435 3.22232H108.303C110.221 3.22232 111.752 4.76942 111.752 6.68719C111.752 7.75083 111.269 8.68554 110.495 9.33017C110.705 9.49133 110.898 9.68472 111.059 9.92645C111.382 10.3938 111.591 10.9901 111.591 11.667C111.575 12.1504 111.623 12.4566 111.656 12.6178ZM108.303 8.331C109.222 8.331 109.963 7.58967 109.963 6.68719C109.963 5.75248 109.222 5.01116 108.303 5.01116H106.321V8.331H108.303Z" fill="#333333"/>
<path d="M114.282 12.8756C113.928 12.5855 113.879 12.0537 114.153 11.6992C114.444 11.3446 114.975 11.2963 115.33 11.5864C116.039 12.1665 117.264 12.8434 118.408 12.8273C119.214 12.8273 119.939 12.5855 120.422 12.231C120.906 11.8765 121.115 11.4736 121.115 11.0707C121.115 10.8612 121.067 10.7161 120.97 10.555C120.874 10.3938 120.729 10.2327 120.487 10.0715C120.02 9.7653 119.23 9.49133 118.279 9.31406H118.247C117.489 9.16901 116.78 8.97563 116.168 8.68554C115.556 8.39546 115.024 7.99257 114.669 7.42852C114.427 7.04174 114.299 6.5905 114.299 6.10703C114.299 5.14009 114.846 4.30207 115.588 3.75413C116.345 3.2062 117.328 2.9 118.376 2.9C119.923 2.9 121.067 3.65744 121.889 4.18926C122.26 4.44711 122.372 4.96281 122.115 5.33347C121.873 5.72025 121.357 5.83306 120.97 5.57521C120.148 5.02728 119.359 4.5438 118.376 4.5438C117.651 4.5438 117.006 4.76942 116.571 5.09174C116.136 5.41405 115.958 5.7686 115.958 6.10703C115.958 6.30042 115.991 6.42934 116.071 6.55827C116.152 6.68719 116.297 6.83224 116.506 6.97728C116.925 7.26736 117.651 7.52521 118.521 7.68637H118.553C119.375 7.84753 120.132 8.05703 120.777 8.36323C121.438 8.68554 122.018 9.10455 122.389 9.70083C122.63 10.0876 122.775 10.5711 122.775 11.0707C122.775 12.1021 122.195 12.9884 121.389 13.5686C120.6 14.1488 119.552 14.4872 118.408 14.4872C116.668 14.4711 115.201 13.6008 114.282 12.8756Z" fill="#333333"/>
<path d="M129.979 2.9C131.462 2.9 132.88 3.56075 133.831 4.62438C134.83 5.68802 135.458 7.1062 135.458 8.70166C135.458 10.2971 134.83 11.7314 133.831 12.7789C132.88 13.8265 131.462 14.5033 129.979 14.5033C128.432 14.5033 127.014 13.8265 126.031 12.7789C125.031 11.7314 124.435 10.2971 124.435 8.70166C124.435 7.1062 125.031 5.68802 126.031 4.62438C127.014 3.56075 128.432 2.9 129.979 2.9ZM132.525 11.5058C133.186 10.8128 133.621 9.79753 133.621 8.70166C133.621 7.60579 133.186 6.5905 132.525 5.88141C131.848 5.1562 130.946 4.73719 129.979 4.73719C128.948 4.73719 128.045 5.1562 127.368 5.88141C126.691 6.5905 126.272 7.60579 126.272 8.70166C126.272 9.79753 126.691 10.8128 127.368 11.5058C128.045 12.231 128.948 12.6661 129.979 12.6661C130.946 12.6661 131.848 12.231 132.525 11.5058Z" fill="#333333"/>
<path d="M139.652 6.92893V13.617C139.652 14.1004 139.249 14.5033 138.782 14.5033C138.282 14.5033 137.896 14.1004 137.896 13.617V4.25372C137.896 4.25372 137.896 4.25372 137.896 4.23761C137.879 3.96364 138.008 3.67356 138.25 3.49628C138.653 3.22232 139.201 3.30289 139.475 3.68967L144.68 10.8934V4.25372C144.68 3.78637 145.067 3.38347 145.551 3.38347C146.034 3.38347 146.437 3.78637 146.437 4.25372V13.617C146.437 14.1004 146.034 14.5033 145.551 14.5033C145.293 14.5033 145.051 14.3744 144.89 14.181C144.858 14.1488 144.825 14.1165 144.809 14.0843L139.652 6.92893Z" fill="#333333"/>
<path d="M156.533 13.9393L155.743 11.8442H151.827L151.038 13.9393C150.893 14.2938 150.554 14.5033 150.2 14.5033C150.087 14.5033 149.99 14.4872 149.893 14.455C149.426 14.2777 149.2 13.762 149.362 13.2946L152.923 3.80248C153.068 3.44794 153.423 3.22232 153.777 3.23843C154.148 3.22232 154.486 3.44794 154.631 3.80248L158.193 13.2946C158.354 13.762 158.129 14.2777 157.661 14.455C157.581 14.4872 157.468 14.5033 157.355 14.5033C157 14.5033 156.662 14.2938 156.533 13.9393ZM152.472 10.0715H155.083L153.777 6.60662L152.472 10.0715Z" fill="#333333"/>
<path d="M160.973 14.5033C160.473 14.5033 160.086 14.1004 160.086 13.617V4.10868C160.086 3.62521 160.473 3.22232 160.973 3.22232C161.472 3.22232 161.875 3.62521 161.875 4.10868V12.7145H166.243C166.71 12.7145 167.129 13.1174 167.129 13.617C167.129 14.1004 166.71 14.5033 166.243 14.5033H161.021C160.989 14.5033 160.989 14.5033 160.989 14.5033C160.973 14.5033 160.973 14.5033 160.973 14.5033Z" fill="#333333"/>
<path d="M87.0258 34.648C86.5262 34.648 86.1394 34.2451 86.1394 33.7616V24.2533C86.1394 23.7699 86.5262 23.367 87.0258 23.367H87.0419C87.0419 23.367 87.0419 23.367 87.0741 23.367H92.2956C92.7629 23.367 93.1819 23.7699 93.1819 24.2533C93.1819 24.7529 92.7629 25.1558 92.2956 25.1558H87.9282V28.105H91.6832C92.1667 28.105 92.5696 28.524 92.5696 28.9913C92.5696 29.4909 92.1667 29.8938 91.6832 29.8938H87.9282V33.7616C87.9282 34.2451 87.5254 34.648 87.0258 34.648Z" fill="#333333"/>
<path d="M95.6874 33.7616V24.2533C95.6874 23.7537 96.0742 23.367 96.5738 23.367C97.0573 23.367 97.4763 23.7537 97.4763 24.2533V33.7616C97.4763 34.2612 97.0573 34.648 96.5738 34.648C96.0742 34.648 95.6874 34.2612 95.6874 33.7616Z" fill="#333333"/>
<path d="M101.935 27.0736V33.7616C101.935 34.2451 101.532 34.648 101.065 34.648C100.565 34.648 100.179 34.2451 100.179 33.7616V24.3984C100.179 24.3984 100.179 24.3984 100.179 24.3822C100.163 24.1083 100.291 23.8182 100.533 23.6409C100.936 23.367 101.484 23.4475 101.758 23.8343L106.963 31.038V24.3984C106.963 23.931 107.35 23.5281 107.834 23.5281C108.317 23.5281 108.72 23.931 108.72 24.3984V33.7616C108.72 34.2451 108.317 34.648 107.834 34.648C107.576 34.648 107.334 34.519 107.173 34.3256C107.141 34.2934 107.108 34.2612 107.092 34.2289L101.935 27.0736Z" fill="#333333"/>
<path d="M118.816 34.0839L118.027 31.9889H114.11L113.321 34.0839C113.176 34.4385 112.837 34.648 112.483 34.648C112.37 34.648 112.273 34.6318 112.177 34.5996C111.709 34.4223 111.484 33.9066 111.645 33.4393L115.206 23.9471C115.351 23.5926 115.706 23.367 116.06 23.3831C116.431 23.367 116.769 23.5926 116.915 23.9471L120.476 33.4393C120.637 33.9066 120.412 34.4223 119.944 34.5996C119.864 34.6318 119.751 34.648 119.638 34.648C119.284 34.648 118.945 34.4385 118.816 34.0839ZM114.755 30.2161H117.366L116.06 26.7513L114.755 30.2161Z" fill="#333333"/>
<path d="M124.142 27.0736V33.7616C124.142 34.2451 123.739 34.648 123.272 34.648C122.772 34.648 122.386 34.2451 122.386 33.7616V24.3984C122.386 24.3984 122.386 24.3984 122.386 24.3822C122.369 24.1083 122.498 23.8182 122.74 23.6409C123.143 23.367 123.691 23.4475 123.965 23.8343L129.17 31.038V24.3984C129.17 23.931 129.557 23.5281 130.04 23.5281C130.524 23.5281 130.927 23.931 130.927 24.3984V33.7616C130.927 34.2451 130.524 34.648 130.04 34.648C129.783 34.648 129.541 34.519 129.38 34.3256C129.348 34.2934 129.315 34.2612 129.299 34.2289L124.142 27.0736Z" fill="#333333"/>
<path d="M139.895 34.648C136.672 34.648 133.997 32.0533 133.981 28.8463C133.997 25.6554 136.672 23.0608 139.895 23.0446C141.313 23.0446 142.602 23.512 143.618 24.3017C144.004 24.624 144.069 25.188 143.779 25.5909C143.457 25.9938 142.86 26.0583 142.49 25.7682C141.78 25.188 140.894 24.8818 139.895 24.8818C138.783 24.8818 137.752 25.3331 136.994 26.0422C136.269 26.7835 135.818 27.7504 135.818 28.8463C135.818 29.9422 136.269 30.9413 136.994 31.6504C137.752 32.3595 138.783 32.8108 139.895 32.8108C140.894 32.8108 141.764 32.5046 142.49 31.9244C142.86 31.6504 143.457 31.7149 143.779 32.1017C144.069 32.5046 144.004 33.0847 143.618 33.3909C142.602 34.1806 141.313 34.648 139.895 34.648Z" fill="#333333"/>
<path d="M147.477 34.648C146.978 34.648 146.591 34.2451 146.591 33.7616V24.2533C146.591 23.7537 146.978 23.367 147.477 23.367H147.493C147.493 23.367 147.493 23.367 147.525 23.367H152.747C153.214 23.367 153.633 23.7537 153.633 24.2533C153.633 24.7529 153.214 25.1558 152.747 25.1558H148.38V28.105H152.135C152.618 28.105 153.021 28.524 153.021 28.9913C153.021 29.4909 152.618 29.8938 152.135 29.8938H148.38V32.8591H152.747C153.214 32.8591 153.633 33.262 153.633 33.7616C153.633 34.2451 153.214 34.648 152.747 34.648H147.525C147.493 34.648 147.493 34.6318 147.493 34.6318L147.477 34.648Z" fill="#333333"/>
<path d="M94.9386 43.5116C95.422 43.5277 95.841 43.9145 95.841 44.398V53.9062C95.841 54.3897 95.422 54.7926 94.9386 54.7926C94.439 54.7926 94.0522 54.3897 94.0522 53.9062V47.1215L91.7315 50.3447C91.5543 50.5864 91.2964 50.7153 91.0063 50.7153H90.9741C90.684 50.7153 90.4101 50.5864 90.2328 50.3447L87.9282 47.1215V53.9062C87.9282 54.3897 87.5254 54.7926 87.0258 54.7926C86.5423 54.7926 86.1394 54.3897 86.1394 53.9062V44.398C86.1394 43.9145 86.5423 43.5116 87.0258 43.5116C87.0419 43.5116 87.0419 43.5116 87.0741 43.5116C87.332 43.5116 87.622 43.6405 87.7832 43.8823L90.9902 48.3302L94.1972 43.8823C94.3745 43.6405 94.6324 43.5116 94.9224 43.5116C94.9224 43.5116 94.9224 43.5116 94.9386 43.5116Z" fill="#333333"/>
<path d="M104.903 54.2285L104.114 52.1335H100.197L99.4078 54.2285C99.2627 54.5831 98.9243 54.7926 98.5697 54.7926C98.4569 54.7926 98.3602 54.7765 98.2635 54.7443C97.7962 54.567 97.5706 54.0513 97.7317 53.5839L101.293 44.0918C101.438 43.7372 101.793 43.5116 102.147 43.5277C102.518 43.5116 102.857 43.7372 103.002 44.0918L106.563 53.5839C106.724 54.0513 106.499 54.567 106.031 54.7443C105.951 54.7765 105.838 54.7926 105.725 54.7926C105.371 54.7926 105.032 54.5831 104.903 54.2285ZM100.842 50.3608H103.453L102.147 46.8959L100.842 50.3608Z" fill="#333333"/>
<path d="M110.229 47.2182V53.9062C110.229 54.3897 109.826 54.7926 109.359 54.7926C108.859 54.7926 108.473 54.3897 108.473 53.9062V44.543C108.473 44.543 108.473 44.543 108.473 44.5269C108.456 44.2529 108.585 43.9628 108.827 43.7856C109.23 43.5116 109.778 43.5922 110.052 43.979L115.257 51.1827V44.543C115.257 44.0756 115.644 43.6728 116.128 43.6728C116.611 43.6728 117.014 44.0756 117.014 44.543V53.9062C117.014 54.3897 116.611 54.7926 116.128 54.7926C115.87 54.7926 115.628 54.6637 115.467 54.4703C115.435 54.4381 115.402 54.4058 115.386 54.3736L110.229 47.2182Z" fill="#333333"/>
<path d="M127.11 54.2285L126.32 52.1335H122.404L121.615 54.2285C121.47 54.5831 121.131 54.7926 120.777 54.7926C120.664 54.7926 120.567 54.7765 120.47 54.7443C120.003 54.567 119.777 54.0513 119.939 53.5839L123.5 44.0918C123.645 43.7372 124 43.5116 124.354 43.5277C124.725 43.5116 125.063 43.7372 125.208 44.0918L128.77 53.5839C128.931 54.0513 128.706 54.567 128.238 54.7443C128.158 54.7765 128.045 54.7926 127.932 54.7926C127.577 54.7926 127.239 54.5831 127.11 54.2285ZM123.049 50.3608H125.66L124.354 46.8959L123.049 50.3608Z" fill="#333333"/>
<path d="M135.591 54.7926C132.32 54.7926 129.644 52.2302 129.644 49.0071C129.644 45.7678 132.32 43.1893 135.591 43.1893C136.961 43.1893 138.266 43.6566 139.265 44.4463C139.684 44.7525 139.749 45.3488 139.443 45.7517C139.137 46.1385 138.54 46.219 138.137 45.8967C137.444 45.3649 136.558 45.0265 135.591 45.0265C134.431 45.0265 133.415 45.4616 132.69 46.2029C131.933 46.9281 131.482 47.9112 131.482 49.0071C131.482 50.0707 131.933 51.0537 132.69 51.779C133.415 52.5203 134.431 52.9554 135.591 52.9554C136.397 52.9554 137.154 52.7137 137.799 52.343V50.1352H135.494C134.995 50.1352 134.576 49.7161 134.576 49.2166C134.576 48.7009 134.995 48.3141 135.494 48.3141H138.669C138.685 48.3141 138.685 48.3141 138.685 48.3141C138.701 48.3141 138.701 48.3141 138.701 48.3141C139.217 48.3141 139.636 48.7009 139.636 49.2166V52.7781C139.636 52.8909 139.604 52.9554 139.588 53.0521C139.572 53.0843 139.572 53.1004 139.556 53.1327V53.1488C139.507 53.2938 139.41 53.4228 139.249 53.5356C138.234 54.3252 136.961 54.7926 135.591 54.7926Z" fill="#333333"/>
<path d="M143.833 54.7926C143.334 54.7926 142.947 54.3897 142.947 53.9062V44.398C142.947 43.8984 143.334 43.5116 143.833 43.5116H143.85C143.85 43.5116 143.85 43.5116 143.882 43.5116H149.103C149.571 43.5116 149.99 43.8984 149.99 44.398C149.99 44.8976 149.571 45.3004 149.103 45.3004H144.736V48.2496H148.491C148.974 48.2496 149.377 48.6686 149.377 49.136C149.377 49.6356 148.974 50.0385 148.491 50.0385H144.736V53.0037H149.103C149.571 53.0037 149.99 53.4066 149.99 53.9062C149.99 54.3897 149.571 54.7926 149.103 54.7926H143.882C143.85 54.7926 143.85 54.7765 143.85 54.7765L143.833 54.7926Z" fill="#333333"/>
<path d="M159.39 52.9071C159.648 52.9876 159.857 53.181 159.954 53.455C160.115 53.9224 159.857 54.4219 159.39 54.5831C159.326 54.5992 159.197 54.6314 159.035 54.6314C159.035 54.6314 159.035 54.6314 159.019 54.6314C158.858 54.6314 158.616 54.5992 158.391 54.4542C158.181 54.3252 158.004 54.1157 157.875 53.8901C157.65 53.4228 157.537 52.8426 157.537 51.9562C157.521 51.65 157.456 51.4405 157.343 51.2633C157.247 51.086 157.053 50.9248 156.86 50.7959C156.521 50.5703 156.102 50.4414 155.957 50.4091H154.056V53.9062C154.056 54.3897 153.653 54.7926 153.153 54.7926C152.654 54.7926 152.267 54.3897 152.267 53.9062V44.398C152.267 43.8984 152.654 43.5116 153.153 43.5116C153.153 43.5116 153.153 43.5116 153.169 43.5116H156.038C157.956 43.5116 159.487 45.0587 159.487 46.9765C159.487 48.0401 159.003 48.9748 158.23 49.6195C158.439 49.7806 158.633 49.974 158.794 50.2157C159.116 50.6831 159.326 51.2794 159.326 51.9562C159.309 52.4397 159.358 52.7459 159.39 52.9071ZM156.038 48.6203C156.957 48.6203 157.698 47.879 157.698 46.9765C157.698 46.0418 156.957 45.3004 156.038 45.3004H154.056V48.6203H156.038Z" fill="#333333"/>
<path d="M69.4412 12.5667L69.4412 44.7981" stroke="#333333" stroke-width="1.61889" stroke-linecap="round"/>
<path fill-rule="evenodd" clip-rule="evenodd" d="M49.4276 8.51113C43.7447 2.86892 36.3663 0 28.9402 0C21.5141 0 14.088 2.86892 8.45282 8.51113C2.81759 14.1533 0 21.5886 0 29.0239C0 36.4592 2.81759 43.8467 8.45282 49.5367C14.088 55.1789 21.4664 58 28.8925 58C32.1753 58 34.1702 57.8225 35.7106 57.4757C38.4044 56.8691 38.9218 53.2694 36.9583 51.3279C35.9321 50.3133 34.4358 49.9743 33.0185 50.2459C26.2384 51.5454 18.9362 49.5615 13.6583 44.277C5.27705 35.8854 5.27705 22.1385 13.6583 13.7469C22.1111 5.35532 35.7694 5.35532 44.1506 13.7469C51.8871 21.493 52.5318 33.6142 46.1325 42.0536L51.4095 47.3372C60.6981 35.9332 59.9818 19.15 49.4276 8.51113Z" fill="url(#paint0_linear_1786_944)"/>
<path fill-rule="evenodd" clip-rule="evenodd" d="M40.0197 34.5944L55.2811 49.5095C56.7827 50.977 56.8106 53.3839 55.3434 54.8859C53.8716 56.3926 51.4553 56.4158 49.9548 54.9375L34.7665 39.9736C31.9489 37.2721 33.2622 38.7065 29.7282 39.0173C26.9106 39.2564 24.0452 38.3001 21.8245 36.1484C17.8608 32.2514 17.7414 25.8203 21.7051 21.8755C25.5973 17.859 32.0205 17.7873 35.9604 21.756C38.1094 23.8599 39.1361 26.681 39.0168 29.5021C38.778 33.1121 37.2259 31.845 40.0435 34.5944H40.0197Z" fill="url(#paint1_linear_1786_944)"/>
<defs>
<linearGradient id="paint0_linear_1786_944" x1="9.32825" y1="11.6767" x2="52.1947" y2="57.9471" gradientUnits="userSpaceOnUse">
<stop stop-color="#0C4FB8"/>
<stop offset="1" stop-color="#01A9FF"/>
</linearGradient>
<linearGradient id="paint1_linear_1786_944" x1="9.32825" y1="11.6767" x2="52.1947" y2="57.9471" gradientUnits="userSpaceOnUse">
<stop stop-color="#0C4FB8"/>
<stop offset="1" stop-color="#01A9FF"/>
</linearGradient>
</defs>
</svg>
